<svg width="239" height="239" viewBox="0 0 239 239" fill="none" xmlns="http://www.w3.org/2000/svg">
<path d="M203.995 35.0051C181.413 12.4228 151.437 0 119.5 0C87.5629 0 57.5873 12.4228 35.0051 35.0051C12.4228 57.5873 0 87.5629 0 119.5C0 151.437 12.4228 181.413 35.0051 203.995C57.5873 226.577 87.5629 239 119.5 239C151.437 239 181.413 226.577 203.995 203.995C226.577 181.413 239 151.437 239 119.5C239 87.5629 226.577 57.5873 203.995 35.0051ZM194.389 194.389C174.371 214.406 147.766 225.42 119.5 225.42C91.2344 225.42 64.6286 214.406 44.6113 194.389C3.31944 153.097 3.31944 85.9032 44.6113 44.6113C64.6286 24.5941 91.2344 13.5795 119.5 13.5795C147.766 13.5795 174.371 24.5941 194.389 44.6113C235.681 85.9032 235.681 153.097 194.389 194.389Z" fill="#248EC2"/>
<path d="M172.158 66.8416C169.493 64.1759 165.218 64.1759 162.552 66.8416L119.5 109.894L76.4478 66.8416C73.7822 64.1759 69.5072 64.1759 66.8415 66.8416C64.1759 69.5072 64.1759 73.7822 66.8415 76.4478L109.894 119.5L66.8415 162.552C64.1759 165.218 64.1759 169.493 66.8415 172.158C68.1492 173.466 69.9095 174.17 71.6195 174.17C73.3295 174.17 75.0899 173.516 76.3975 172.158L119.45 129.106L162.502 172.158C163.81 173.466 165.57 174.17 167.28 174.17C169.04 174.17 170.75 173.516 172.058 172.158C174.723 169.493 174.723 165.218 172.058 162.552L129.106 119.5L172.158 76.4478C174.824 73.7822 174.824 69.5072 172.158 66.8416Z" fill="#248EC2"/>
</svg>
